<?xml version="1.0" encoding="utf-8"?>
<!-- Generator: Adobe Illustrator 22.0.1, SVG Export Plug-In . SVG Version: 6.00 Build 0)  -->
<svg  version="1.1" id="Слой_1" xmlns="http://www.w3.org/2000/svg" xmlns:xlink="http://www.w3.org/1999/xlink" x="0px" y="0px"
 viewBox="0 0 1920 1080"  preserveAspectRatio="none" style="enable-background:new 0 0 1920 1080;" xml:space="preserve">
<style type="text/css">
	.st0{fill:url(#SVGID_1_);}
	.st1{opacity:0.2443;}
	.st2{fill:#9AC4C6;}
	.st3{opacity:5.465100e-02;}
	.st4{opacity:0.341;}
	.st5{opacity:0.4395;}
	.st6{opacity:0.3403;}
	.st7{opacity:0.1984;}
	.st8{opacity:0.2669;}
	.st9{opacity:0.3556;}
	.st10{opacity:5.872200e-02;}
	.st11{opacity:0.5176;}
	.st12{opacity:0.7235;}
	.st13{opacity:0.3334;}
	.st14{opacity:0.8014;}
	.st15{opacity:0.38;}
	.st16{fill:#91C1C3;}
	.st17{display:none;opacity:0.4395;}
	.st18{display:inline;fill:#FFFFFF;}
	.st19{display:none;opacity:0.3403;}
	.st20{display:none;opacity:0.1984;}
	.st21{display:none;opacity:0.2669;}
	.st22{display:none;opacity:0.3556;}
	.st23{display:none;opacity:5.872200e-02;}
	.st24{display:none;opacity:0.5176;}
	.st25{display:none;opacity:0.7235;}
	.st26{display:none;opacity:0.3334;}
	.st27{opacity:0.5761;}
	.st28{opacity:0.1811;}
	.st29{opacity:0.6975;}
	.st30{opacity:0.6378;}
	.st31{opacity:0.6534;}
	.st32{opacity:0.4075;}
	.st33{opacity:0.1929;}
	.st34{opacity:0.9176;}
	.st35{opacity:0.4956;}
	.st36{opacity:0.6271;}
	.st37{opacity:0.7557;}
	.st38{opacity:0.5999;}
	.st39{opacity:0.7881;}
	.st40{opacity:0.397;}
	.st41{opacity:0.1352;}
	.st42{opacity:0.5835;}
	.st43{opacity:0.7245;}
	.st44{opacity:0.6437;}
	.st45{opacity:0.4081;}
	.st46{opacity:0.9412;}
	.st47{opacity:0.2546;}
	.st48{opacity:0.2255;}
	.st49{opacity:0.1251;}
	.st50{opacity:0.2913;}
	.st51{opacity:0.7893;}
	.st52{opacity:0.769;}
	.st53{opacity:0.7914;}
	.st54{opacity:0.3504;}
	.st55{opacity:0.5955;}
	.st56{opacity:0.9285;}
	.st57{opacity:0.9356;}
</style>
<g>
	
		<linearGradient id="SVGID_1_" gradientUnits="userSpaceOnUse" x1="908.0364" y1="-2742.6726" x2="1855.6902" y2="-1101.2883" gradientTransform="matrix(-1 0 0 -1 2341.8633 -1381.9805)">
		<stop  offset="0" style="stop-color:#62ACCE"/>
		<stop  offset="0.3987" style="stop-color:#3B697D"/>
		<stop  offset="0.4515" style="stop-color:#315869"/>
		<stop  offset="0.5644" style="stop-color:#203943"/>
		<stop  offset="0.6771" style="stop-color:#122026"/>
		<stop  offset="0.7881" style="stop-color:#080E11"/>
		<stop  offset="0.8967" style="stop-color:#020404"/>
		<stop  offset="1" style="stop-color:#000000"/>
	</linearGradient>
	<path class="st0" d="M1920,1080V5c0-2.3,0-3,0-5C1700.7,0,285.3-0.2,0,0v1080H1920z"/>
</g>
<g>
	<g class="st1">
		<path class="st2" d="M1911.5,553.6l-68.5-210l77-7.6v205.4L1911.5,553.6z M1846.5,346l65.8,201.8l5-7.1V339L1846.5,346z"/>
	</g>
	<g id="triangle36_2355_" class="st3">
		<path class="st2" d="M1809.1,432.6l-372.5-155.7l410,66.9L1809.1,432.6z M1458.3,283l349.4,146.1l35.2-83.3L1458.3,283z"/>
	</g>
	<g id="triangle36_2354_" class="st4">
		<path class="st2" d="M1510.4,975.8l-307.7-148.1l199.9-36.9L1510.4,975.8z M1211.1,828.8l292.7,140.9l-102.5-175.9L1211.1,828.8z"
			/>
	</g>
	<g id="triangle36_2349_" class="st5">
		<path class="st2" d="M1115,1062.8l-62.8-276.4l156.5,41L1115,1062.8z M1055.7,790l60,263.9l89.4-224.8L1055.7,790z"/>
	</g>
	<g class="st6">
		<path class="st2" d="M1116.5,1075.2H942.2l-61.9-105.3l236.3,87.6L1116.5,1075.2z M943.7,1072.5h170.2l0.1-13.3l-227.6-84.4
			L943.7,1072.5z"/>
	</g>
	<g class="st7">
		<path class="st2" d="M1578.2,1075.2h-90.8l18.9-105.9L1578.2,1075.2z M1490.6,1072.5h82.7l-65.4-96.4L1490.6,1072.5z"/>
	</g>
	<g class="st8">
		<path class="st2" d="M1405.5,1075.2H1132l-19.4-17.6l398.7-87.2L1405.5,1075.2z M1133,1072.5h271.4l98.5-97.6l-384.8,84.1
			L1133,1072.5z"/>
	</g>
	<g id="triangle36_2348_" class="st9">
		<path class="st2" d="M1395.9,653.6l50.5-375.5l365.1,152.7L1395.9,653.6z M1448.6,281.8l-49.4,367L1805.4,431L1448.6,281.8z"/>
	</g>
	<g id="triangle36_2347_" class="st10">
		<path class="st2" d="M1852.9,843l-452.3-49.6l-4.5-144.3L1852.9,843z M1403.2,791.1l432.2,47.4l-436.5-185.2L1403.2,791.1z"/>
	</g>
	<g id="triangle36_2346_" class="st11">
		<path class="st2" d="M832.4,786.6l-0.9-1L707.8,645.3l319.6-22.8L832.4,786.6z M713.2,647.5L832.7,783l186.8-157.3L713.2,647.5z"
			/>
	</g>
	<g id="triangle36_2345_" class="st12">
		<path class="st2" d="M836.4,786.5l-95.6-8.3l-31-104.2L836.4,786.5z M742.8,775.7l85.9,7.5L714.9,682.1L742.8,775.7z"/>
	</g>
	<g id="triangle36_2342_" class="st13">
		<path class="st2" d="M678,1041.8l63.2-268l144.4,199.2L678,1041.8z M742.4,780l-60.8,257.8l199.6-66.1L742.4,780z"/>
	</g>
	<g id="triangle36_2340_" class="st14">
		<path class="st2" d="M1403.3,795.1l-47.3-38.1l42.6-112.4L1403.3,795.1z M1359.2,756.1l41.3,33.3l-4.1-131.6L1359.2,756.1z"/>
	</g>
	<g id="triangle36_2334_" class="st15">
		<path class="st2" d="M1197.3,831.3l160.5-76.4L1405,793L1197.3,831.3z M1357.4,758.1l-140.9,67.1l182.3-33.6L1357.4,758.1z"/>
	</g>
	<g>
		<path class="st16" d="M1898.9,541.2c-2-2.6-1.5-6.2,1-8.2c2.6-2,6.2-1.5,8.2,1c2,2.5,1.5,6.2-1,8.2
			C1904.5,544.2,1900.9,543.8,1898.9,541.2z"/>
		<path class="st16" d="M1769.3,725c-2-2.5-1.5-6.2,1-8.2c2.5-2,6.2-1.5,8.2,1c2,2.5,1.5,6.2-1,8.2
			C1774.9,728,1771.3,727.6,1769.3,725z"/>
		<path class="st16" d="M1715.3,559.3c-2-2.5-1.5-6.2,1-8.2c2.6-2,6.2-1.5,8.2,1c2,2.5,1.5,6.2-1,8.2
			C1720.9,562.4,1717.3,561.9,1715.3,559.3z"/>
		<path class="st16" d="M1427.8,302.7c-2-2.5-1.5-6.2,1-8.2c2.5-2,6.2-1.5,8.2,1c2,2.5,1.5,6.2-1,8.2
			C1433.4,305.7,1429.7,305.3,1427.8,302.7z"/>
		<path class="st16" d="M1395.6,507.1c-2-2.5-1.5-6.2,1-8.2c2.5-2,6.2-1.5,8.2,1c2,2.5,1.5,6.2-1,8.2
			C1401.3,510.2,1397.6,509.7,1395.6,507.1z"/>
		<path class="st16" d="M1686.1,628.6c-2-2.5-1.5-6.2,1-8.2c2.5-2,6.2-1.5,8.2,1c2,2.6,1.5,6.2-1,8.2
			C1691.7,631.6,1688,631.2,1686.1,628.6z"/>
		<path class="st16" d="M1715.3,559.3c-2-2.5-1.5-6.2,1-8.2c2.6-2,6.2-1.5,8.2,1c2,2.5,1.5,6.2-1,8.2
			C1720.9,562.4,1717.3,561.9,1715.3,559.3z"/>
		<path class="st16" d="M1202,948.4c-2-2.5-1.5-6.2,1-8.2c2.5-2,6.2-1.5,8.2,1c2,2.5,1.5,6.2-1,8.2
			C1207.6,951.4,1204,950.9,1202,948.4z"/>
		<path class="st16" d="M1443.5,1064.6c-2-2.5-1.5-6.2,1-8.2c2.6-2,6.2-1.5,8.2,1c2,2.5,1.5,6.2-1,8.2
			C1449.2,1067.6,1445.5,1067.2,1443.5,1064.6z"/>
		<path class="st16" d="M1358.9,919.4c-2-2.5-1.5-6.2,1-8.2c2.6-2,6.2-1.5,8.2,1c2,2.5,1.5,6.2-1,8.2
			C1364.6,922.4,1360.9,922,1358.9,919.4z"/>
		<path class="st16" d="M1202,948.4c-2-2.5-1.5-6.2,1-8.2c2.5-2,6.2-1.5,8.2,1c2,2.5,1.5,6.2-1,8.2
			C1207.6,951.4,1204,950.9,1202,948.4z"/>
		<path class="st16" d="M1078.9,916.1c-2-2.6-1.5-6.2,1-8.2c2.6-2,6.2-1.5,8.2,1c2,2.5,1.5,6.2-1,8.2
			C1084.6,919.1,1080.9,918.7,1078.9,916.1z"/>
		<path class="st16" d="M941.6,1064.4c-2-2.6-1.5-6.2,1-8.2c2.5-2,6.2-1.5,8.2,1c2,2.5,1.5,6.2-1,8.2
			C947.3,1067.4,943.6,1066.9,941.6,1064.4z"/>
		<path class="st16" d="M1443.5,1064.6c-2-2.5-1.5-6.2,1-8.2c2.6-2,6.2-1.5,8.2,1c2,2.5,1.5,6.2-1,8.2
			C1449.2,1067.6,1445.5,1067.2,1443.5,1064.6z"/>
		<path class="st16" d="M1443.5,1064.6c-2-2.5-1.5-6.2,1-8.2c2.6-2,6.2-1.5,8.2,1c2,2.5,1.5,6.2-1,8.2
			C1449.2,1067.6,1445.5,1067.2,1443.5,1064.6z"/>
		<path class="st16" d="M1395.6,507.1c-2-2.5-1.5-6.2,1-8.2c2.5-2,6.2-1.5,8.2,1c2,2.5,1.5,6.2-1,8.2
			C1401.3,510.2,1397.6,509.7,1395.6,507.1z"/>
		<path class="st16" d="M1355.4,805.9c-2-2.5-1.5-6.2,1-8.2c2.6-2,6.2-1.5,8.2,1c2,2.5,1.5,6.2-1,8.2
			C1361,808.9,1357.4,808.4,1355.4,805.9z"/>
		<path class="st16" d="M1395.6,507.1c-2-2.5-1.5-6.2,1-8.2c2.5-2,6.2-1.5,8.2,1c2,2.5,1.5,6.2-1,8.2
			C1401.3,510.2,1397.6,509.7,1395.6,507.1z"/>
		<path class="st16" d="M1686.1,628.6c-2-2.5-1.5-6.2,1-8.2c2.5-2,6.2-1.5,8.2,1c2,2.6,1.5,6.2-1,8.2
			C1691.7,631.6,1688,631.2,1686.1,628.6z"/>
		<path class="st16" d="M1355.4,805.9c-2-2.5-1.5-6.2,1-8.2c2.6-2,6.2-1.5,8.2,1c2,2.5,1.5,6.2-1,8.2
			C1361,808.9,1357.4,808.4,1355.4,805.9z"/>
		<path class="st16" d="M1358.9,919.4c-2-2.5-1.5-6.2,1-8.2c2.6-2,6.2-1.5,8.2,1c2,2.5,1.5,6.2-1,8.2
			C1364.6,922.4,1360.9,922,1358.9,919.4z"/>
		<path class="st16" d="M1714.8,958.4c-2-2.5-1.5-6.2,1-8.2c2.6-2,6.2-1.5,8.2,1c2,2.5,1.5,6.2-1,8.2
			C1720.5,961.4,1716.8,961,1714.8,958.4z"/>
		<path class="st16" d="M1870.6,774.2c-2-2.5-1.5-6.2,1-8.2c2.5-2,6.2-1.5,8.2,1c2,2.5,1.5,6.2-1,8.2
			C1876.3,777.2,1872.6,776.7,1870.6,774.2z"/>
		<path class="st16" d="M1870.6,774.2c-2-2.5-1.5-6.2,1-8.2c2.5-2,6.2-1.5,8.2,1c2,2.5,1.5,6.2-1,8.2
			C1876.3,777.2,1872.6,776.7,1870.6,774.2z"/>
		<path class="st16" d="M1782.3,307.9c-2-2.5-1.5-6.2,1-8.2c2.5-2,6.2-1.5,8.2,1c2,2.5,1.5,6.2-1,8.2
			C1788,310.9,1784.3,310.5,1782.3,307.9z"/>
		<path class="st16" d="M802.5,802c-2-2.5-1.5-6.2,1-8.2c2.5-2,6.2-1.5,8.2,1c2,2.6,1.5,6.2-1,8.2
			C808.2,805.1,804.5,804.6,802.5,802z"/>
		<path class="st16" d="M900.7,913.4c-2-2.5-1.5-6.2,1-8.2c2.5-2,6.2-1.5,8.2,1c2,2.5,1.5,6.2-1,8.2
			C906.4,916.4,902.7,916,900.7,913.4z"/>
		<path class="st16" d="M1054.3,784.1c-2-2.5-1.5-6.2,1-8.2c2.6-2,6.2-1.5,8.2,1c2,2.5,1.5,6.2-1,8.2
			C1060,787.1,1056.3,786.6,1054.3,784.1z"/>
		<path class="st16" d="M804,827.5c-2-2.5-1.5-6.2,1-8.2c2.6-2,6.2-1.5,8.2,1c2,2.6,1.5,6.2-1,8.2C809.7,830.5,806,830,804,827.5z"
			/>
		<path class="st16" d="M827.7,907.1c-2-2.5-1.5-6.2,1-8.2c2.6-2,6.2-1.5,8.2,1c2,2.5,1.5,6.2-1,8.2
			C833.3,910.1,829.7,909.6,827.7,907.1z"/>
		<path class="st16" d="M900.7,913.4c-2-2.5-1.5-6.2,1-8.2c2.5-2,6.2-1.5,8.2,1c2,2.5,1.5,6.2-1,8.2
			C906.4,916.4,902.7,916,900.7,913.4z"/>
		<path class="st16" d="M941.6,1064.4c-2-2.6-1.5-6.2,1-8.2c2.5-2,6.2-1.5,8.2,1c2,2.5,1.5,6.2-1,8.2
			C947.3,1067.4,943.6,1066.9,941.6,1064.4z"/>
		<path class="st16" d="M827.7,907.1c-2-2.5-1.5-6.2,1-8.2c2.6-2,6.2-1.5,8.2,1c2,2.5,1.5,6.2-1,8.2
			C833.3,910.1,829.7,909.6,827.7,907.1z"/>
		<path class="st16" d="M1323.3,890.7c-2-2.5-1.5-6.2,1-8.2c2.5-2,6.2-1.5,8.2,1c2,2.5,1.5,6.2-1,8.2
			C1328.9,893.7,1325.2,893.2,1323.3,890.7z"/>
		<path class="st16" d="M1358.9,919.4c-2-2.5-1.5-6.2,1-8.2c2.6-2,6.2-1.5,8.2,1c2,2.5,1.5,6.2-1,8.2
			C1364.6,922.4,1360.9,922,1358.9,919.4z"/>
		<path class="st16" d="M1355.4,805.9c-2-2.5-1.5-6.2,1-8.2c2.6-2,6.2-1.5,8.2,1c2,2.5,1.5,6.2-1,8.2
			C1361,808.9,1357.4,808.4,1355.4,805.9z"/>
		<path class="st16" d="M1323.3,890.7c-2-2.5-1.5-6.2,1-8.2c2.5-2,6.2-1.5,8.2,1c2,2.5,1.5,6.2-1,8.2
			C1328.9,893.7,1325.2,893.2,1323.3,890.7z"/>
		<path class="st16" d="M1202,948.4c-2-2.5-1.5-6.2,1-8.2c2.5-2,6.2-1.5,8.2,1c2,2.5,1.5,6.2-1,8.2
			C1207.6,951.4,1204,950.9,1202,948.4z"/>
		<path class="st16" d="M1358.9,919.4c-2-2.5-1.5-6.2,1-8.2c2.6-2,6.2-1.5,8.2,1c2,2.5,1.5,6.2-1,8.2
			C1364.6,922.4,1360.9,922,1358.9,919.4z"/>
	</g>
</g>
<g>
	<g id="triangle36_8_" class="st17">
		<path class="st18" d="M618,9.5l62.8,276.4l-156.5-41L618,9.5z M677.3,282.3l-60-263.9l-89.4,224.8L677.3,282.3z"/>
	</g>
	<g class="st19">
		<path class="st18" d="M616.5-2.9h174.3l61.9,105.3L616.3,14.8L616.5-2.9z M789.3-0.3H619.1L619,13l227.6,84.4L789.3-0.3z"/>
	</g>
	<g class="st20">
		<path class="st18" d="M154.8-2.9h90.8L226.6,103L154.8-2.9z M242.4-0.3h-82.7l65.4,96.4L242.4-0.3z"/>
	</g>
	<g class="st21">
		<path class="st18" d="M327.5-2.9H601l19.4,17.6l-398.7,87.2L327.5-2.9z M600-0.3H328.6l-98.5,97.6l384.8-84.1L600-0.3z"/>
	</g>
	<g id="triangle36_7_" class="st22">
		<path class="st18" d="M337.1,418.7l-50.5,375.5L-78.5,641.6L337.1,418.7z M284.4,790.5l49.4-367L-72.4,641.3L284.4,790.5z"/>
	</g>
	<g id="triangle36_6_" class="st23">
		<path class="st18" d="M-119.9,229.3l452.3,49.6l4.5,144.3L-119.9,229.3z M329.8,281.2l-432.2-47.4l436.5,185.2L329.8,281.2z"/>
	</g>
	<g id="triangle36_5_" class="st24">
		<path class="st18" d="M900.6,285.6l0.9,1L1025.2,427l-319.6,22.8L900.6,285.6z M1019.8,424.8L900.3,289.3L713.5,446.6
			L1019.8,424.8z"/>
	</g>
	<g id="triangle36_4_" class="st25">
		<path class="st18" d="M896.6,285.8l95.6,8.3l31,104.2L896.6,285.8z M990.2,296.6l-85.9-7.5l113.8,101.1L990.2,296.6z"/>
	</g>
	<g id="triangle36_3_" class="st26">
		<path class="st18" d="M1055,30.5l-63.2,268L847.5,99.2L1055,30.5z M990.6,292.3l60.8-257.8l-199.6,66.1L990.6,292.3z"/>
	</g>
</g>
<g>
	<g id="triangle36_2330_" class="st1">
		<path class="st2" d="M1686.8,815.8l83-117.8l34.6,106.2L1686.8,815.8z M1769,703.8l-76.7,108.8l108.7-10.7L1769,703.8z"/>
	</g>
	<g id="triangle36_2329_" class="st27">
		<path class="st2" d="M1821.6,335.7l-85.3-50.8l1.2-2.3l76.4,33.4L1821.6,335.7z M1755.6,293.3l60.8,36.2l-4.5-11.7L1755.6,293.3z"
			/>
	</g>
	<g class="st28">
		<path class="st2" d="M1833.2,214.4l7.9-134.9L1920,137v20L1833.2,214.4z M1843.5,84.5l-7.3,124.8l81.2-53.7v-17.3L1843.5,84.5z"/>
	</g>
	<g id="triangle36_2328_" class="st29">
		<path class="st2" d="M1212,811.3l-69.8-23.3l76.9-91L1212,811.3z M1146.6,786.8l62.9,21l6.3-103L1146.6,786.8z"/>
	</g>
	<g class="st3">
		<path class="st2" d="M1920,823.5l-119.2-19.5l19.2-45.4l100,41.8V823.5z M1804.6,802l112.8,18.4v-18.2l-95.9-40.1L1804.6,802z"/>
	</g>
	<g id="triangle36_2323_" class="st30">
		<path class="st2" d="M1191.9,823.8l-55.1-40.3l76.9,25.7L1191.9,823.8z M1152,791.3l40,29.2l15.9-10.6L1152,791.3z"/>
	</g>
	<g class="st31">
		<path class="st2" d="M1239.3,1075.2h-86.9l30.6-171.9L1239.3,1075.2z M1155.5,1072.5h80.1l-51.9-158.5L1155.5,1072.5z"/>
	</g>
	<g id="triangle36_2322_" class="st32">
		<path class="st2" d="M1185.9,870.2l4.7-48.8l23.1-15.5L1185.9,870.2z M1193.1,822.9l-3,30.9l17.6-40.7L1193.1,822.9z"/>
	</g>
	<g id="triangle36_2317_" class="st33">
		<path class="st2" d="M1584.1,742.2l-160.1-2.9L1537.2,583L1584.1,742.2z M1429.1,736.8l151.5,2.7l-44.4-150.7L1429.1,736.8z"/>
	</g>
	<g id="triangle36_2315_" class="st34">
		<path class="st2" d="M1885,368.1l-67-34.5l-7.8-20.2l76.2,52.4L1885,368.1z M1820.1,331.7l47.8,24.6l-52.2-35.9L1820.1,331.7z"/>
	</g>
	<g class="st7">
		<path class="st2" d="M1920,420l-37.2-54.8l37.2,5.9V420z M1888.4,368.7l29,42.7v-38.1L1888.4,368.7z"/>
	</g>
	<g class="st35">
		<path class="st2" d="M1155,1075.2h-6.9l-7.5-154.8l44.4-13.6L1155,1075.2z M1150.6,1072.5h2.2l28.9-162l-38.3,11.7L1150.6,1072.5z
			"/>
	</g>
	<g id="triangle36_2314_" class="st36">
		<path class="st2" d="M1680.5,372.2l-60.3-130.9l118.7,41.8L1680.5,372.2z M1625.3,245.8l55.7,121l54-82.3L1625.3,245.8z"/>
	</g>
	<g id="triangle36_2313_" class="st37">
		<path class="st2" d="M1824.2,433.1l-147.5-63.9l143.5-38.2L1824.2,433.1z M1684.7,369.8l136.7,59.2l-3.7-94.7L1684.7,369.8z"/>
	</g>
	<g class="st9">
		<path class="st2" d="M1920,803.3l-102.3-42.8l102.3-54.9V803.3z M1823.8,760.2l93.6,39.1v-89.3L1823.8,760.2z"/>
	</g>
	<g class="st10">
		<path class="st2" d="M1920,608.2l-125.8-53.4l125.8,13.8V608.2z M1811.8,559.4l105.6,44.8v-33.2L1811.8,559.4z"/>
	</g>
	<g id="triangle36_2312_" class="st38">
		<path class="st2" d="M1638.4,751.6l-59.4-9.9l102.5-72L1638.4,751.6z M1585.7,740.1l51.2,8.5l37.1-70.5L1585.7,740.1z"/>
	</g>
	<g id="triangle36_2311_" class="st39">
		<path class="st2" d="M1580.6,743.7l19.5-122l80,52.1L1580.6,743.7z M1602,626.2L1584.1,738l91.2-64.1L1602,626.2z"/>
	</g>
	<g id="triangle36_2308_" class="st40">
		<path class="st2" d="M1631.2,759.4l45.7-86.8l33.3-3.7L1631.2,759.4z M1678.6,675.1l-34.5,65.6l59.7-68.4L1678.6,675.1z"/>
	</g>
	<g id="triangle36_2306_" class="st41">
		<path class="st2" d="M1676.9,675.3l-53.5-128.7l85.9,125.1L1676.9,675.3z M1635.5,569l43,103.5l26-2.9L1635.5,569z"/>
	</g>
	<g id="triangle36_2301_" class="st42">
		<path class="st2" d="M1011.5,1062.9l-76.7-41.8l116.9-36.9L1011.5,1062.9z M941.5,1021.7l68.9,37.5l36.1-70.7L941.5,1021.7z"/>
	</g>
	<g id="triangle36_2299_" class="st43">
		<path class="st2" d="M1209.3,811.9l7-113.8l75.6,65.6L1209.3,811.9z M1218.6,703.6l-6.4,103.5l75.2-43.8L1218.6,703.6z"/>
	</g>
	<g id="triangle36_2298_" class="st44">
		<path class="st2" d="M1292,767.3l-79.4-68.8l65.3,14.5L1292,767.3z M1222.2,703.3l65.1,56.5l-11.5-44.5L1222.2,703.3z"/>
	</g>
	<g class="st45">
		<path class="st2" d="M1465,1075.2h-55l21.2-150.1l79.9,98.8L1465,1075.2z M1413,1072.5h50.7l43.9-48.7l-74.7-92.3L1413,1072.5z"/>
	</g>
	<g class="st46">
		<path class="st2" d="M1733.1,1075.2H1674l-45.2-64.4l134.5-55L1733.1,1075.2z M1675.4,1072.5h55.7l28.4-112.3l-126.6,51.8
			L1675.4,1072.5z"/>
	</g>
	<g class="st47">
		<path class="st2" d="M1920,259.1l-87.8-47.1l87.8-58.1V259.1z M1837.3,211.8l80.1,43v-95.9L1837.3,211.8z"/>
	</g>
	<g id="triangle36_2297_" class="st48">
		<path class="st2" d="M1181.9,910.4l5.1-50.3l72.4,32.1L1181.9,910.4z M1189.2,863.9l-4.3,43l66.2-15.6L1189.2,863.9z"/>
	</g>
	<g id="triangle36_2296_" class="st49">
		<path class="st2" d="M1258.2,894.5l-71.9-31.8l24.3-56.1L1258.2,894.5z M1189.8,861.3l62.4,27.6l-41.3-76.4L1189.8,861.3z"/>
	</g>
	<g id="triangle36_2295_" class="st50">
		<path class="st2" d="M1255.6,895.3L1209,809l82.8-48.3L1255.6,895.3z M1212.5,810l42.3,78.2l32.8-121.9L1212.5,810z"/>
	</g>
	<g id="triangle36_2294_" class="st51">
		<path class="st2" d="M1433,929.8l-186-38.4l206.6-25L1433,929.8z M1263.3,892.1l167.9,34.7l18.7-57.2L1263.3,892.1z"/>
	</g>
	<g id="triangle36_2287_" class="st52">
		<path class="st2" d="M1047.8,988.9l1.2-115.1l95.5,47.4L1047.8,988.9z M1051.6,878l-1.1,105.8l88.9-62.3L1051.6,878z"/>
	</g>
	<g id="triangle36_2286_" class="st53">
		<path class="st2" d="M1051.2,876.8l-1.8-1.9l91.6-94l5.1,6.6L1051.2,876.8z M1140.8,784.9l-47.2,48.4l49-46.1L1140.8,784.9z"/>
	</g>
	<g id="triangle36_2281_" class="st12">
		<path class="st2" d="M1277.7,716.4l-29.7-22.2l43.1-43.7L1277.7,716.4z M1252,693.9l24,17.9l10.8-53.2L1252,693.9z"/>
	</g>
	<g id="triangle36_2279_" class="st54">
		<path class="st2" d="M1802.6,301.5l-68.7-17.2l103.6-76.2L1802.6,301.5z M1740,283.2l61,15.2l31-82.8L1740,283.2z"/>
	</g>
	<g id="triangle36_2278_" class="st55">
		<path class="st2" d="M1813.6,320.3l-13.2-20.2l33.2-88.7l2.5,0.7L1813.6,320.3z M1803.3,299.8l9,13.7l17.7-85.1L1803.3,299.8z"/>
	</g>
	<g id="triangle36_2277_" class="st56">
		<path class="st2" d="M1610.1,758.5l-34.7-20.1l68.6,11.4L1610.1,758.5z M1589.3,743.4l21.2,12.3l20.8-5.3L1589.3,743.4z"/>
	</g>
	<g id="triangle36_2276_" class="st57">
		<path class="st2" d="M1452.5,869.1l-1.7-2l131.3-127.8l30.6,17.7L1452.5,869.1z M1582.5,742.5l-118.2,115l143.5-100.4
			L1582.5,742.5z"/>
	</g>
	<g>
		<path class="st16" d="M1775.9,705.6c1,1.3,0.8,3.1-0.5,4.1c-1.3,1-3.1,0.8-4.1-0.5c-1-1.3-0.7-3.1,0.5-4.1
			C1773.1,704.1,1774.9,704.4,1775.9,705.6z"/>
		<path class="st16" d="M1840.1,614.4c1,1.3,0.8,3.1-0.5,4.1c-1.3,1-3.1,0.8-4.1-0.5c-1-1.3-0.7-3.1,0.5-4.1
			C1837.3,613,1839.2,613.2,1840.1,614.4z"/>
		<path class="st16" d="M1866.9,696.6c1,1.3,0.8,3.1-0.5,4.1c-1.3,1-3.1,0.7-4.1-0.5c-1-1.3-0.8-3.1,0.5-4.1
			C1864.1,695.1,1866,695.4,1866.9,696.6z"/>
		<path class="st16" d="M1875.2,305.4c1,1.3,0.8,3.1-0.5,4.1c-1.3,1-3.1,0.8-4.1-0.5c-1-1.3-0.7-3.1,0.5-4.1
			C1872.4,303.9,1874.2,304.2,1875.2,305.4z"/>
		<path class="st16" d="M1880.1,318.1c1,1.3,0.8,3.1-0.5,4.1c-1.3,1-3.1,0.8-4.1-0.5c-1-1.3-0.8-3.1,0.5-4.1
			C1877.3,316.6,1879.1,316.8,1880.1,318.1z"/>
		<path class="st16" d="M1814.1,278.7c1,1.3,0.8,3.1-0.5,4.1c-1.3,1-3.1,0.8-4.1-0.5c-1-1.3-0.8-3.1,0.5-4.1
			C1811.2,277.3,1813.1,277.5,1814.1,278.7z"/>
		<path class="st16" d="M1892.7,220.9c1,1.3,0.8,3.1-0.5,4.1c-1.3,1-3.1,0.8-4.1-0.5c-1-1.3-0.8-3.1,0.5-4.1
			C1889.9,219.4,1891.7,219.6,1892.7,220.9z"/>
		<path class="st16" d="M1898.8,116.4c1,1.3,0.8,3.1-0.5,4.1c-1.3,1-3.1,0.8-4.1-0.5c-1-1.3-0.8-3.1,0.5-4.1
			C1896,114.9,1897.9,115.2,1898.8,116.4z"/>
		<path class="st16" d="M1102.3,911.9c1,1.3,0.8,3.1-0.5,4.1c-1.3,1-3.1,0.8-4.1-0.5c-1-1.3-0.7-3.1,0.5-4.1
			C1099.5,910.4,1101.3,910.7,1102.3,911.9z"/>
		<path class="st16" d="M1171.2,872.4c1,1.3,0.8,3.1-0.5,4.1c-1.3,1-3.1,0.8-4.1-0.5c-1-1.3-0.8-3.1,0.5-4.1
			C1168.4,870.9,1170.3,871.1,1171.2,872.4z"/>
		<path class="st16" d="M1033.5,824.5c1,1.3,0.8,3.1-0.5,4.1c-1.3,1-3.1,0.8-4.1-0.5c-1-1.3-0.8-3.1,0.5-4.1
			C1030.7,823,1032.5,823.2,1033.5,824.5z"/>
		<path class="st16" d="M1390.6,701.9c1,1.3,0.8,3.1-0.5,4.1c-1.3,1-3.1,0.8-4.1-0.5c-1-1.3-0.8-3.1,0.5-4.1
			C1387.8,700.4,1389.6,700.6,1390.6,701.9z"/>
		<path class="st16" d="M1337.2,684c1,1.3,0.8,3.1-0.5,4.1c-1.3,1-3.1,0.8-4.1-0.5c-1-1.3-0.8-3.1,0.5-4.1
			C1334.4,682.5,1336.2,682.8,1337.2,684z"/>
		<path class="st16" d="M1881.4,662.3c1,1.3,0.8,3.1-0.5,4.1c-1.3,1-3.1,0.8-4.1-0.5c-1-1.3-0.8-3.1,0.5-4.1
			C1878.6,660.8,1880.5,661,1881.4,662.3z"/>
		<path class="st16" d="M1866.9,696.6c1,1.3,0.8,3.1-0.5,4.1c-1.3,1-3.1,0.7-4.1-0.5c-1-1.3-0.8-3.1,0.5-4.1
			C1864.1,695.1,1866,695.4,1866.9,696.6z"/>
		<path class="st16" d="M1626.9,1054.6c1,1.3,0.8,3.1-0.5,4.1c-1.3,1-3.1,0.8-4.1-0.5c-1-1.3-0.8-3.1,0.5-4.1
			C1624.1,1053.1,1625.9,1053.4,1626.9,1054.6z"/>
		<path class="st16" d="M1375.4,712c1,1.3,0.8,3.1-0.5,4.1c-1.3,1-3.1,0.8-4.1-0.5c-1-1.3-0.8-3.1,0.5-4.1
			C1372.6,710.5,1374.4,710.7,1375.4,712z"/>
		<path class="st16" d="M1390.6,701.9c1,1.3,0.8,3.1-0.5,4.1c-1.3,1-3.1,0.8-4.1-0.5c-1-1.3-0.8-3.1,0.5-4.1
			C1387.8,700.4,1389.6,700.6,1390.6,701.9z"/>
		<path class="st16" d="M1337.2,684c1,1.3,0.8,3.1-0.5,4.1c-1.3,1-3.1,0.8-4.1-0.5c-1-1.3-0.8-3.1,0.5-4.1
			C1334.4,682.5,1336.2,682.8,1337.2,684z"/>
		<path class="st16" d="M1422.5,946.5c1,1.3,0.8,3.1-0.5,4.1c-1.3,1-3.1,0.8-4.1-0.5c-1-1.3-0.7-3.1,0.5-4.1
			C1419.7,945,1421.5,945.2,1422.5,946.5z"/>
		<path class="st16" d="M1368.5,781.6c1,1.3,0.8,3.1-0.5,4.1c-1.3,1-3.1,0.8-4.1-0.5c-1-1.3-0.8-3.1,0.5-4.1
			C1365.7,780.1,1367.6,780.4,1368.5,781.6z"/>
		<path class="st16" d="M1342,930.8c1,1.3,0.8,3.1-0.5,4.1c-1.3,1-3.1,0.8-4.1-0.5c-1-1.3-0.8-3.1,0.5-4.1
			C1339.1,929.3,1341,929.6,1342,930.8z"/>
		<path class="st16" d="M1372.3,744.1c1,1.3,0.8,3.1-0.5,4.1c-1.3,1-3.1,0.8-4.1-0.5c-1-1.3-0.8-3.1,0.5-4.1
			C1369.5,742.6,1371.3,742.8,1372.3,744.1z"/>
		<path class="st16" d="M1390.6,701.9c1,1.3,0.8,3.1-0.5,4.1c-1.3,1-3.1,0.8-4.1-0.5c-1-1.3-0.8-3.1,0.5-4.1
			C1387.8,700.4,1389.6,700.6,1390.6,701.9z"/>
		<path class="st16" d="M1375.4,712c1,1.3,0.8,3.1-0.5,4.1c-1.3,1-3.1,0.8-4.1-0.5c-1-1.3-0.8-3.1,0.5-4.1
			C1372.6,710.5,1374.4,710.7,1375.4,712z"/>
		<path class="st16" d="M1033.5,824.5c1,1.3,0.8,3.1-0.5,4.1c-1.3,1-3.1,0.8-4.1-0.5c-1-1.3-0.8-3.1,0.5-4.1
			C1030.7,823,1032.5,823.2,1033.5,824.5z"/>
		<path class="st16" d="M1652.8,521.9c1,1.3,0.8,3.1-0.5,4.1c-1.3,1-3.1,0.8-4.1-0.5c-1-1.3-0.8-3.1,0.5-4.1
			C1650,520.4,1651.9,520.6,1652.8,521.9z"/>
		<path class="st16" d="M1689.6,646.6c1,1.3,0.8,3.1-0.5,4.1c-1.3,1-3.1,0.8-4.1-0.5c-1-1.3-0.8-3.1,0.5-4.1
			C1686.8,645.1,1688.6,645.3,1689.6,646.6z"/>
		<path class="st16" d="M1564.2,644.3c1,1.3,0.8,3.1-0.5,4.1c-1.3,1-3.1,0.8-4.1-0.5c-1-1.3-0.7-3.1,0.5-4.1
			C1561.4,642.8,1563.3,643.1,1564.2,644.3z"/>
		<path class="st16" d="M1677.5,1006.3c1,1.3,0.8,3.1-0.5,4.1c-1.3,1-3.1,0.8-4.1-0.5c-1-1.3-0.7-3.1,0.5-4.1
			C1674.7,1004.8,1676.5,1005,1677.5,1006.3z"/>
		<path class="st16" d="M1544.2,970.5c1,1.3,0.8,3.1-0.5,4.1c-1.3,1-3.1,0.8-4.1-0.5c-1-1.3-0.8-3.1,0.5-4.1
			C1541.4,969.1,1543.2,969.3,1544.2,970.5z"/>
		<path class="st16" d="M1575.3,1037c1,1.3,0.8,3.1-0.5,4.1c-1.3,1-3.1,0.8-4.1-0.5c-1-1.3-0.8-3.1,0.5-4.1
			C1572.5,1035.5,1574.3,1035.8,1575.3,1037z"/>
		<path class="st16" d="M1696.9,88.8c1,1.3,0.8,3.1-0.5,4.1c-1.3,1-3.1,0.8-4.1-0.5c-1-1.3-0.8-3.1,0.5-4.1
			C1694.1,87.3,1695.9,87.6,1696.9,88.8z"/>
		<path class="st16" d="M1675.7,132.5c1,1.3,0.7,3.1-0.5,4.1c-1.3,1-3.1,0.8-4.1-0.5c-1-1.3-0.7-3.1,0.5-4.1
			C1672.9,131,1674.7,131.3,1675.7,132.5z"/>
		<path class="st16" d="M1722.1,246.4c1,1.3,0.8,3.1-0.5,4.1c-1.3,1-3.1,0.8-4.1-0.5c-1-1.3-0.7-3.1,0.5-4.1
			C1719.3,244.9,1721.2,245.1,1722.1,246.4z"/>
		<path class="st16" d="M1627.9,132.6c1,1.3,0.8,3.1-0.5,4.1c-1.3,1-3.1,0.8-4.1-0.5c-1-1.3-0.8-3.1,0.5-4.1
			C1625.1,131.1,1626.9,131.3,1627.9,132.6z"/>
		<path class="st16" d="M1875.2,305.4c1,1.3,0.8,3.1-0.5,4.1c-1.3,1-3.1,0.8-4.1-0.5c-1-1.3-0.7-3.1,0.5-4.1
			C1872.4,303.9,1874.2,304.2,1875.2,305.4z"/>
		<path class="st16" d="M1880.1,318.1c1,1.3,0.8,3.1-0.5,4.1c-1.3,1-3.1,0.8-4.1-0.5c-1-1.3-0.8-3.1,0.5-4.1
			C1877.3,316.6,1879.1,316.8,1880.1,318.1z"/>
		<path class="st16" d="M1793.1,75.8c1,1.3,0.8,3.1-0.5,4.1c-1.3,1-3.1,0.8-4.1-0.5c-1-1.3-0.8-3.1,0.5-4.1
			C1790.3,74.3,1792.1,74.6,1793.1,75.8z"/>
		<path class="st16" d="M1898.8,116.4c1,1.3,0.8,3.1-0.5,4.1c-1.3,1-3.1,0.8-4.1-0.5c-1-1.3-0.8-3.1,0.5-4.1
			C1896,114.9,1897.9,115.2,1898.8,116.4z"/>
		<path class="st16" d="M1826.7,129.7c1,1.3,0.8,3.1-0.5,4.1c-1.3,1-3.1,0.8-4.1-0.5c-1-1.3-0.7-3.1,0.5-4.1
			C1823.9,128.2,1825.7,128.4,1826.7,129.7z"/>
		<path class="st16" d="M1793.1,75.8c1,1.3,0.8,3.1-0.5,4.1c-1.3,1-3.1,0.8-4.1-0.5c-1-1.3-0.8-3.1,0.5-4.1
			C1790.3,74.3,1792.1,74.6,1793.1,75.8z"/>
		<path class="st16" d="M1155.8,736.9c1,1.3,0.8,3.1-0.5,4.1c-1.3,1-3.1,0.8-4.1-0.5c-1-1.3-0.8-3.1,0.5-4.1
			C1153,735.4,1154.8,735.6,1155.8,736.9z"/>
		<path class="st16" d="M1155.8,736.9c1,1.3,0.8,3.1-0.5,4.1c-1.3,1-3.1,0.8-4.1-0.5c-1-1.3-0.8-3.1,0.5-4.1
			C1153,735.4,1154.8,735.6,1155.8,736.9z"/>
		<path class="st16" d="M1155.8,736.9c1,1.3,0.8,3.1-0.5,4.1c-1.3,1-3.1,0.8-4.1-0.5c-1-1.3-0.8-3.1,0.5-4.1
			C1153,735.4,1154.8,735.6,1155.8,736.9z"/>
		<path class="st16" d="M1335.3,791.8c1,1.3,0.8,3.1-0.5,4.1c-1.3,1-3.1,0.8-4.1-0.5c-1-1.3-0.7-3.1,0.5-4.1
			C1332.5,790.3,1334.3,790.6,1335.3,791.8z"/>
		<path class="st16" d="M1368.5,781.6c1,1.3,0.8,3.1-0.5,4.1c-1.3,1-3.1,0.8-4.1-0.5c-1-1.3-0.8-3.1,0.5-4.1
			C1365.7,780.1,1367.6,780.4,1368.5,781.6z"/>
		<path class="st16" d="M1342,930.8c1,1.3,0.8,3.1-0.5,4.1c-1.3,1-3.1,0.8-4.1-0.5c-1-1.3-0.8-3.1,0.5-4.1
			C1339.1,929.3,1341,929.6,1342,930.8z"/>
		<path class="st16" d="M1768.8,347.7c1,1.3,0.8,3.1-0.5,4.1c-1.3,1-3.1,0.8-4.1-0.5c-1-1.3-0.8-3.1,0.5-4.1
			C1766,346.2,1767.8,346.5,1768.8,347.7z"/>
		<path class="st16" d="M1814.1,278.7c1,1.3,0.8,3.1-0.5,4.1c-1.3,1-3.1,0.8-4.1-0.5c-1-1.3-0.8-3.1,0.5-4.1
			C1811.2,277.3,1813.1,277.5,1814.1,278.7z"/>
		<path class="st16" d="M1722.1,246.4c1,1.3,0.8,3.1-0.5,4.1c-1.3,1-3.1,0.8-4.1-0.5c-1-1.3-0.7-3.1,0.5-4.1
			C1719.3,244.9,1721.2,245.1,1722.1,246.4z"/>
		<path class="st16" d="M1768.8,347.7c1,1.3,0.8,3.1-0.5,4.1c-1.3,1-3.1,0.8-4.1-0.5c-1-1.3-0.8-3.1,0.5-4.1
			C1766,346.2,1767.8,346.5,1768.8,347.7z"/>
		<path class="st16" d="M1880.1,318.1c1,1.3,0.8,3.1-0.5,4.1c-1.3,1-3.1,0.8-4.1-0.5c-1-1.3-0.8-3.1,0.5-4.1
			C1877.3,316.6,1879.1,316.8,1880.1,318.1z"/>
		<path class="st16" d="M1883.1,397.3c1,1.3,0.8,3.1-0.5,4.1c-1.3,1-3.1,0.8-4.1-0.5c-1-1.3-0.8-3.1,0.5-4.1
			C1880.3,395.8,1882.1,396,1883.1,397.3z"/>
		<path class="st16" d="M1881.4,662.3c1,1.3,0.8,3.1-0.5,4.1c-1.3,1-3.1,0.8-4.1-0.5c-1-1.3-0.8-3.1,0.5-4.1
			C1878.6,660.8,1880.5,661,1881.4,662.3z"/>
		<path class="st16" d="M1867.2,498.7c1,1.3,0.8,3.1-0.5,4.1c-1.3,1-3.1,0.8-4.1-0.5c-1-1.3-0.7-3.1,0.5-4.1
			C1864.4,497.2,1866.2,497.4,1867.2,498.7z"/>
		<path class="st16" d="M1766.4,592.7c1,1.3,0.8,3.1-0.5,4.1c-1.3,1-3.1,0.8-4.1-0.5c-1-1.3-0.8-3.1,0.5-4.1
			C1763.6,591.2,1765.4,591.4,1766.4,592.7z"/>
		<path class="st16" d="M1734.1,654c1,1.3,0.8,3.1-0.5,4.1c-1.3,1-3.1,0.8-4.1-0.5c-1-1.3-0.8-3.1,0.5-4.1
			C1731.3,652.5,1733.1,652.8,1734.1,654z"/>
		<path class="st16" d="M1689.6,646.6c1,1.3,0.8,3.1-0.5,4.1c-1.3,1-3.1,0.8-4.1-0.5c-1-1.3-0.8-3.1,0.5-4.1
			C1686.8,645.1,1688.6,645.3,1689.6,646.6z"/>
		<path class="st16" d="M1766.4,592.7c1,1.3,0.8,3.1-0.5,4.1c-1.3,1-3.1,0.8-4.1-0.5c-1-1.3-0.8-3.1,0.5-4.1
			C1763.6,591.2,1765.4,591.4,1766.4,592.7z"/>
		<path class="st16" d="M1704.6,552.5c1,1.3,0.8,3.1-0.5,4.1c-1.3,1-3.1,0.8-4.1-0.5c-1-1.3-0.7-3.1,0.5-4.1
			C1701.8,551,1703.7,551.2,1704.6,552.5z"/>
		<path class="st16" d="M1689.6,646.6c1,1.3,0.8,3.1-0.5,4.1c-1.3,1-3.1,0.8-4.1-0.5c-1-1.3-0.8-3.1,0.5-4.1
			C1686.8,645.1,1688.6,645.3,1689.6,646.6z"/>
		<path class="st16" d="M1766.4,592.7c1,1.3,0.8,3.1-0.5,4.1c-1.3,1-3.1,0.8-4.1-0.5c-1-1.3-0.8-3.1,0.5-4.1
			C1763.6,591.2,1765.4,591.4,1766.4,592.7z"/>
		<path class="st16" d="M1789.9,590.1c1,1.3,0.8,3.1-0.5,4.1c-1.3,1-3.1,0.8-4.1-0.5c-1-1.3-0.8-3.1,0.5-4.1
			C1787.1,588.6,1788.9,588.8,1789.9,590.1z"/>
		<path class="st16" d="M1734.1,654c1,1.3,0.8,3.1-0.5,4.1c-1.3,1-3.1,0.8-4.1-0.5c-1-1.3-0.8-3.1,0.5-4.1
			C1731.3,652.5,1733.1,652.8,1734.1,654z"/>
		<path class="st16" d="M1766.4,592.7c1,1.3,0.8,3.1-0.5,4.1c-1.3,1-3.1,0.8-4.1-0.5c-1-1.3-0.8-3.1,0.5-4.1
			C1763.6,591.2,1765.4,591.4,1766.4,592.7z"/>
		<path class="st16" d="M1727.5,499.3c1,1.3,0.8,3.1-0.5,4.1c-1.3,1-3.1,0.8-4.1-0.5c-1-1.3-0.7-3.1,0.5-4.1
			C1724.7,497.8,1726.6,498,1727.5,499.3z"/>
		<path class="st16" d="M1789.9,590.1c1,1.3,0.8,3.1-0.5,4.1c-1.3,1-3.1,0.8-4.1-0.5c-1-1.3-0.8-3.1,0.5-4.1
			C1787.1,588.6,1788.9,588.8,1789.9,590.1z"/>
		<path class="st16" d="M1494.7,984.3c1,1.3,0.8,3.1-0.5,4.1c-1.3,1-3.1,0.8-4.1-0.5c-1-1.3-0.8-3.1,0.5-4.1
			C1491.9,982.8,1493.8,983,1494.7,984.3z"/>
		<path class="st16" d="M1575.3,1037c1,1.3,0.8,3.1-0.5,4.1c-1.3,1-3.1,0.8-4.1-0.5c-1-1.3-0.8-3.1,0.5-4.1
			C1572.5,1035.5,1574.3,1035.8,1575.3,1037z"/>
		<path class="st16" d="M1485.7,1063.8c1,1.3,0.8,3.1-0.5,4.1c-1.3,1-3.1,0.8-4.1-0.5c-1-1.3-0.8-3.1,0.5-4.1
			C1482.9,1062.3,1484.7,1062.6,1485.7,1063.8z"/>
		<path class="st16" d="M1229.8,904.3c1,1.3,0.8,3.1-0.5,4.1c-1.3,1-3.1,0.8-4.1-0.5c-1-1.3-0.7-3.1,0.5-4.1
			C1227,902.8,1228.9,903,1229.8,904.3z"/>
		<path class="st16" d="M1260.6,844.1c1,1.3,0.8,3.1-0.5,4.1c-1.3,1-3.1,0.8-4.1-0.5c-1-1.3-0.8-3.1,0.5-4.1
			C1257.8,842.6,1259.6,842.9,1260.6,844.1z"/>
		<path class="st16" d="M1171.2,872.4c1,1.3,0.8,3.1-0.5,4.1c-1.3,1-3.1,0.8-4.1-0.5c-1-1.3-0.8-3.1,0.5-4.1
			C1168.4,870.9,1170.3,871.1,1171.2,872.4z"/>
		<path class="st16" d="M1264.2,1040.7c1,1.3,0.8,3.1-0.5,4.1c-1.3,1-3.1,0.8-4.1-0.5c-1-1.3-0.7-3.1,0.5-4.1
			C1261.4,1039.2,1263.2,1039.5,1264.2,1040.7z"/>
		<path class="st16" d="M1454.1,664.8c1,1.3,0.8,3.1-0.5,4.1c-1.3,1-3.1,0.8-4.1-0.5c-1-1.3-0.8-3.1,0.5-4.1
			C1451.3,663.4,1453.1,663.6,1454.1,664.8z"/>
		<path class="st16" d="M1390.6,701.9c1,1.3,0.8,3.1-0.5,4.1c-1.3,1-3.1,0.8-4.1-0.5c-1-1.3-0.8-3.1,0.5-4.1
			C1387.8,700.4,1389.6,700.6,1390.6,701.9z"/>
		<path class="st16" d="M1454.1,664.8c1,1.3,0.8,3.1-0.5,4.1c-1.3,1-3.1,0.8-4.1-0.5c-1-1.3-0.8-3.1,0.5-4.1
			C1451.3,663.4,1453.1,663.6,1454.1,664.8z"/>
		<path class="st16" d="M1630.9,874.3c1,1.3,0.7,3.1-0.5,4.1c-1.3,1-3.1,0.8-4.1-0.5c-1-1.3-0.8-3.1,0.5-4.1
			C1628.1,872.8,1630,873.1,1630.9,874.3z"/>
		<path class="st16" d="M1568.7,797.4c1,1.3,0.8,3.1-0.5,4.1c-1.3,1-3.1,0.8-4.1-0.5c-1-1.3-0.7-3.1,0.5-4.1
			C1565.9,795.9,1567.7,796.2,1568.7,797.4z"/>
		<path class="st16" d="M1544.2,970.5c1,1.3,0.8,3.1-0.5,4.1c-1.3,1-3.1,0.8-4.1-0.5c-1-1.3-0.8-3.1,0.5-4.1
			C1541.4,969.1,1543.2,969.3,1544.2,970.5z"/>
		<path class="st16" d="M1797.9,962.9c1,1.3,0.8,3.1-0.5,4.1c-1.3,1-3.1,0.8-4.1-0.5c-1-1.3-0.7-3.1,0.5-4.1
			C1795.1,961.4,1796.9,961.7,1797.9,962.9z"/>
		<path class="st16" d="M1833.7,821.4c1,1.3,0.8,3.1-0.5,4.1c-1.3,1-3.1,0.8-4.1-0.5c-1-1.3-0.8-3.1,0.5-4.1
			C1830.9,819.9,1832.7,820.1,1833.7,821.4z"/>
		<path class="st16" d="M1728.6,864.3c1,1.3,0.7,3.1-0.5,4.1c-1.3,1-3.1,0.8-4.1-0.5c-1-1.3-0.8-3.1,0.5-4.1
			C1725.8,862.8,1727.6,863,1728.6,864.3z"/>
		<path class="st16" d="M1892.7,220.9c1,1.3,0.8,3.1-0.5,4.1c-1.3,1-3.1,0.8-4.1-0.5c-1-1.3-0.8-3.1,0.5-4.1
			C1889.9,219.4,1891.7,219.6,1892.7,220.9z"/>
		<path class="st16" d="M1426.3,768c1,1.3,0.8,3.1-0.5,4.1c-1.3,1-3.1,0.8-4.1-0.5c-1-1.3-0.8-3.1,0.5-4.1
			C1423.5,766.5,1425.4,766.7,1426.3,768z"/>
		<path class="st16" d="M1372.3,744.1c1,1.3,0.8,3.1-0.5,4.1c-1.3,1-3.1,0.8-4.1-0.5c-1-1.3-0.8-3.1,0.5-4.1
			C1369.5,742.6,1371.3,742.8,1372.3,744.1z"/>
		<path class="st16" d="M1368.5,781.6c1,1.3,0.8,3.1-0.5,4.1c-1.3,1-3.1,0.8-4.1-0.5c-1-1.3-0.8-3.1,0.5-4.1
			C1365.7,780.1,1367.6,780.4,1368.5,781.6z"/>
		<path class="st16" d="M1426.3,768c1,1.3,0.8,3.1-0.5,4.1c-1.3,1-3.1,0.8-4.1-0.5c-1-1.3-0.8-3.1,0.5-4.1
			C1423.5,766.5,1425.4,766.7,1426.3,768z"/>
		<path class="st16" d="M1390.6,701.9c1,1.3,0.8,3.1-0.5,4.1c-1.3,1-3.1,0.8-4.1-0.5c-1-1.3-0.8-3.1,0.5-4.1
			C1387.8,700.4,1389.6,700.6,1390.6,701.9z"/>
		<path class="st16" d="M1372.3,744.1c1,1.3,0.8,3.1-0.5,4.1c-1.3,1-3.1,0.8-4.1-0.5c-1-1.3-0.8-3.1,0.5-4.1
			C1369.5,742.6,1371.3,742.8,1372.3,744.1z"/>
		<path class="st16" d="M1426.3,768c1,1.3,0.8,3.1-0.5,4.1c-1.3,1-3.1,0.8-4.1-0.5c-1-1.3-0.8-3.1,0.5-4.1
			C1423.5,766.5,1425.4,766.7,1426.3,768z"/>
		<path class="st16" d="M1454.1,664.8c1,1.3,0.8,3.1-0.5,4.1c-1.3,1-3.1,0.8-4.1-0.5c-1-1.3-0.8-3.1,0.5-4.1
			C1451.3,663.4,1453.1,663.6,1454.1,664.8z"/>
		<path class="st16" d="M1390.6,701.9c1,1.3,0.8,3.1-0.5,4.1c-1.3,1-3.1,0.8-4.1-0.5c-1-1.3-0.8-3.1,0.5-4.1
			C1387.8,700.4,1389.6,700.6,1390.6,701.9z"/>
		<path class="st16" d="M1426.3,768c1,1.3,0.8,3.1-0.5,4.1c-1.3,1-3.1,0.8-4.1-0.5c-1-1.3-0.8-3.1,0.5-4.1
			C1423.5,766.5,1425.4,766.7,1426.3,768z"/>
		<path class="st16" d="M1584.5,748.9c1,1.3,0.8,3.1-0.5,4.1c-1.3,1-3.1,0.8-4.1-0.5c-1-1.3-0.8-3.1,0.5-4.1
			C1581.7,747.4,1583.5,747.6,1584.5,748.9z"/>
		<path class="st16" d="M1568.7,797.4c1,1.3,0.8,3.1-0.5,4.1c-1.3,1-3.1,0.8-4.1-0.5c-1-1.3-0.7-3.1,0.5-4.1
			C1565.9,795.9,1567.7,796.2,1568.7,797.4z"/>
		<path class="st16" d="M1419.9,1049.1c1,1.3,0.8,3.1-0.5,4.1c-1.3,1-3.1,0.8-4.1-0.5c-1-1.3-0.8-3.1,0.5-4.1
			C1417.1,1047.6,1418.9,1047.8,1419.9,1049.1z"/>
		<path class="st16" d="M1277.2,1040.5c1,1.3,0.8,3.1-0.5,4.1c-1.3,1-3.1,0.8-4.1-0.5c-1-1.3-0.7-3.1,0.5-4.1
			C1274.4,1039,1276.2,1039.2,1277.2,1040.5z"/>
		<path class="st16" d="M1277.2,1040.5c1,1.3,0.8,3.1-0.5,4.1c-1.3,1-3.1,0.8-4.1-0.5c-1-1.3-0.7-3.1,0.5-4.1
			C1274.4,1039,1276.2,1039.2,1277.2,1040.5z"/>
		<path class="st16" d="M1243.6,916.7c1,1.3,0.8,3.1-0.5,4.1c-1.3,1-3.1,0.8-4.1-0.5c-1-1.3-0.7-3.1,0.5-4.1
			C1240.8,915.2,1242.6,915.4,1243.6,916.7z"/>
		<path class="st16" d="M1264.2,1040.7c1,1.3,0.8,3.1-0.5,4.1c-1.3,1-3.1,0.8-4.1-0.5c-1-1.3-0.7-3.1,0.5-4.1
			C1261.4,1039.2,1263.2,1039.5,1264.2,1040.7z"/>
		<path class="st16" d="M1277.2,1040.5c1,1.3,0.8,3.1-0.5,4.1c-1.3,1-3.1,0.8-4.1-0.5c-1-1.3-0.7-3.1,0.5-4.1
			C1274.4,1039,1276.2,1039.2,1277.2,1040.5z"/>
		<path class="st16" d="M1419.9,1049.1c1,1.3,0.8,3.1-0.5,4.1c-1.3,1-3.1,0.8-4.1-0.5c-1-1.3-0.8-3.1,0.5-4.1
			C1417.1,1047.6,1418.9,1047.8,1419.9,1049.1z"/>
		<path class="st16" d="M1416.5,1002.3c1,1.3,0.8,3.1-0.5,4.1c-1.3,1-3.1,0.8-4.1-0.5c-1-1.3-0.7-3.1,0.5-4.1
			C1413.7,1000.8,1415.5,1001,1416.5,1002.3z"/>
		<path class="st16" d="M1494.7,984.3c1,1.3,0.8,3.1-0.5,4.1c-1.3,1-3.1,0.8-4.1-0.5c-1-1.3-0.8-3.1,0.5-4.1
			C1491.9,982.8,1493.8,983,1494.7,984.3z"/>
		<path class="st16" d="M1422.5,946.5c1,1.3,0.8,3.1-0.5,4.1c-1.3,1-3.1,0.8-4.1-0.5c-1-1.3-0.7-3.1,0.5-4.1
			C1419.7,945,1421.5,945.2,1422.5,946.5z"/>
		<path class="st16" d="M1261.5,755.2c1,1.3,0.8,3.1-0.5,4.1c-1.3,1-3.1,0.8-4.1-0.5c-1-1.3-0.8-3.1,0.5-4.1
			C1258.7,753.7,1260.5,754,1261.5,755.2z"/>
		<path class="st16" d="M1335.3,791.8c1,1.3,0.8,3.1-0.5,4.1c-1.3,1-3.1,0.8-4.1-0.5c-1-1.3-0.7-3.1,0.5-4.1
			C1332.5,790.3,1334.3,790.6,1335.3,791.8z"/>
		<path class="st16" d="M1260.6,844.1c1,1.3,0.8,3.1-0.5,4.1c-1.3,1-3.1,0.8-4.1-0.5c-1-1.3-0.8-3.1,0.5-4.1
			C1257.8,842.6,1259.6,842.9,1260.6,844.1z"/>
		<path class="st16" d="M1261.5,755.2c1,1.3,0.8,3.1-0.5,4.1c-1.3,1-3.1,0.8-4.1-0.5c-1-1.3-0.8-3.1,0.5-4.1
			C1258.7,753.7,1260.5,754,1261.5,755.2z"/>
		<path class="st16" d="M1337.2,684c1,1.3,0.8,3.1-0.5,4.1c-1.3,1-3.1,0.8-4.1-0.5c-1-1.3-0.8-3.1,0.5-4.1
			C1334.4,682.5,1336.2,682.8,1337.2,684z"/>
		<path class="st16" d="M1334.4,680.4c1,1.3,0.8,3.1-0.5,4.1c-1.3,1-3.1,0.8-4.1-0.5c-1-1.3-0.8-3.1,0.5-4.1
			C1331.6,679,1333.4,679.2,1334.4,680.4z"/>
		<path class="st16" d="M1740.9,985c1,1.3,0.8,3.1-0.5,4.1c-1.3,1-3.1,0.7-4.1-0.5c-1-1.3-0.7-3.1,0.5-4.1
			C1738.1,983.5,1739.9,983.7,1740.9,985z"/>
		<path class="st16" d="M1677.5,1006.3c1,1.3,0.8,3.1-0.5,4.1c-1.3,1-3.1,0.8-4.1-0.5c-1-1.3-0.7-3.1,0.5-4.1
			C1674.7,1004.8,1676.5,1005,1677.5,1006.3z"/>
		<path class="st16" d="M1866.2,291.8c1,1.3,0.8,3.1-0.5,4.1c-1.3,1-3.1,0.8-4.1-0.5c-1-1.3-0.8-3.1,0.5-4.1
			C1863.4,290.3,1865.2,290.5,1866.2,291.8z"/>
		<path class="st16" d="M1892.7,220.9c1,1.3,0.8,3.1-0.5,4.1c-1.3,1-3.1,0.8-4.1-0.5c-1-1.3-0.8-3.1,0.5-4.1
			C1889.9,219.4,1891.7,219.6,1892.7,220.9z"/>
		<path class="st16" d="M1814.1,278.7c1,1.3,0.8,3.1-0.5,4.1c-1.3,1-3.1,0.8-4.1-0.5c-1-1.3-0.8-3.1,0.5-4.1
			C1811.2,277.3,1813.1,277.5,1814.1,278.7z"/>
		<path class="st16" d="M1866.2,291.8c1,1.3,0.8,3.1-0.5,4.1c-1.3,1-3.1,0.8-4.1-0.5c-1-1.3-0.8-3.1,0.5-4.1
			C1863.4,290.3,1865.2,290.5,1866.2,291.8z"/>
		<path class="st16" d="M1892.7,220.9c1,1.3,0.8,3.1-0.5,4.1c-1.3,1-3.1,0.8-4.1-0.5c-1-1.3-0.8-3.1,0.5-4.1
			C1889.9,219.4,1891.7,219.6,1892.7,220.9z"/>
		<path class="st16" d="M1875.2,305.4c1,1.3,0.8,3.1-0.5,4.1c-1.3,1-3.1,0.8-4.1-0.5c-1-1.3-0.7-3.1,0.5-4.1
			C1872.4,303.9,1874.2,304.2,1875.2,305.4z"/>
		<path class="st16" d="M1210.8,1026.1c1,1.3,0.8,3.1-0.5,4.1c-1.3,1-3.1,0.8-4.1-0.5c-1-1.3-0.8-3.1,0.5-4.1
			C1208.1,1024.6,1209.9,1024.9,1210.8,1026.1z"/>
		<path class="st16" d="M1210.8,1026.1c1,1.3,0.8,3.1-0.5,4.1c-1.3,1-3.1,0.8-4.1-0.5c-1-1.3-0.8-3.1,0.5-4.1
			C1208.1,1024.6,1209.9,1024.9,1210.8,1026.1z"/>
		<path class="st16" d="M1264.2,1040.7c1,1.3,0.8,3.1-0.5,4.1c-1.3,1-3.1,0.8-4.1-0.5c-1-1.3-0.7-3.1,0.5-4.1
			C1261.4,1039.2,1263.2,1039.5,1264.2,1040.7z"/>
		<path class="st16" d="M1712.1,659.6c1,1.3,0.8,3.1-0.5,4.1c-1.3,1-3.1,0.8-4.1-0.5c-1-1.3-0.7-3.1,0.5-4.1
			C1709.3,658.1,1711.1,658.3,1712.1,659.6z"/>
		<path class="st16" d="M1734.1,654c1,1.3,0.8,3.1-0.5,4.1c-1.3,1-3.1,0.8-4.1-0.5c-1-1.3-0.8-3.1,0.5-4.1
			C1731.3,652.5,1733.1,652.8,1734.1,654z"/>
		<path class="st16" d="M1689.6,646.6c1,1.3,0.8,3.1-0.5,4.1c-1.3,1-3.1,0.8-4.1-0.5c-1-1.3-0.8-3.1,0.5-4.1
			C1686.8,645.1,1688.6,645.3,1689.6,646.6z"/>
		<path class="st16" d="M1712.1,659.6c1,1.3,0.8,3.1-0.5,4.1c-1.3,1-3.1,0.8-4.1-0.5c-1-1.3-0.7-3.1,0.5-4.1
			C1709.3,658.1,1711.1,658.3,1712.1,659.6z"/>
		<path class="st16" d="M1689.6,646.6c1,1.3,0.8,3.1-0.5,4.1c-1.3,1-3.1,0.8-4.1-0.5c-1-1.3-0.8-3.1,0.5-4.1
			C1686.8,645.1,1688.6,645.3,1689.6,646.6z"/>
		<path class="st16" d="M1584.5,748.9c1,1.3,0.8,3.1-0.5,4.1c-1.3,1-3.1,0.8-4.1-0.5c-1-1.3-0.8-3.1,0.5-4.1
			C1581.7,747.4,1583.5,747.6,1584.5,748.9z"/>
	</g>
</g>
</svg>
