<?xml version="1.0"?>
<svg xmlns="http://www.w3.org/2000/svg" xmlns:xlink="http://www.w3.org/1999/xlink" version="1.1" viewBox="0 0 192 192" width="100px" height="100px"><g fill="none" fill-rule="nonzero" stroke="none" stroke-width="1" stroke-linecap="butt" stroke-linejoin="miter" stroke-miterlimit="10" stroke-dasharray="" stroke-dashoffset="0" font-family="none" font-weight="none" font-size="none" text-anchor="none" style="mix-blend-mode: normal"><path d="M0,192v-192h192v192z" fill="none"/><g fill="#1797be"><g id="surface1"><path d="M161.28,19.2h-38.4v-7.68c0,-6.345 -5.175,-11.52 -11.52,-11.52h-30.72c-6.345,0 -11.52,5.175 -11.52,11.52v7.68h-38.4c-2.115,0 -3.84,1.725 -3.84,3.84c0,2.115 1.725,3.84 3.84,3.84h4.17l13.86,155.58c0.48,5.34 5.025,9.54 10.35,9.54h73.785c5.325,0 9.87,-4.2 10.35,-9.54l13.875,-155.58h4.17c2.13,0 3.84,-1.725 3.84,-3.84c0,-2.115 -1.71,-3.84 -3.84,-3.84zM76.8,168.96c0,2.13 -1.725,3.84 -3.84,3.84c-2.115,0 -3.84,-1.71 -3.84,-3.84v-126.72c0,-2.115 1.725,-3.84 3.84,-3.84c2.115,0 3.84,1.725 3.84,3.84zM76.8,11.52c0,-2.115 1.725,-3.84 3.84,-3.84h30.72c2.115,0 3.84,1.725 3.84,3.84v7.68h-38.4zM99.84,168.96c0,2.13 -1.725,3.84 -3.84,3.84c-2.115,0 -3.84,-1.71 -3.84,-3.84v-126.72c0,-2.115 1.725,-3.84 3.84,-3.84c2.115,0 3.84,1.725 3.84,3.84zM122.88,168.96c0,2.13 -1.71,3.84 -3.84,3.84c-2.13,0 -3.84,-1.71 -3.84,-3.84v-126.72c0,-2.115 1.71,-3.84 3.84,-3.84c2.13,0 3.84,1.725 3.84,3.84z"/></g></g></g></svg>
